<mxfile host="65bd71144e">
    <diagram name="Page-1" id="uGSNIBTzhhLfXkiAcoGn">
        <mxGraphModel dx="794" dy="306" grid="1" gridSize="10" guides="1" tooltips="1" connect="1" arrows="1" fold="1" page="1" pageScale="1" pageWidth="827" pageHeight="1169" math="0" shadow="0">
            <root>
                <mxCell id="0"/>
                <mxCell id="1" parent="0"/>
                <mxCell id="HJgPrh2-Y2blTkaWVyYF-6" value="hop (1)" style="edgeStyle=orthogonalEdgeStyle;rounded=0;orthogonalLoop=1;jettySize=auto;html=1;curved=1;entryX=0.25;entryY=0;entryDx=0;entryDy=0;exitX=0.5;exitY=0;exitDx=0;exitDy=0;" parent="1" source="HJgPrh2-Y2blTkaWVyYF-1" target="HJgPrh2-Y2blTkaWVyYF-5" edge="1">
                    <mxGeometry relative="1" as="geometry">
                        <Array as="points">
                            <mxPoint x="100" y="40"/>
                            <mxPoint x="230" y="40"/>
                        </Array>
                    </mxGeometry>
                </mxCell>
                <mxCell id="HJgPrh2-Y2blTkaWVyYF-1" value="Milan Talker." style="rounded=1;whiteSpace=wrap;html=1;fillColor=#6a00ff;fontColor=#ffffff;strokeColor=#3700CC;" parent="1" vertex="1">
                    <mxGeometry x="40" y="80" width="120" height="60" as="geometry"/>
                </mxCell>
                <mxCell id="HJgPrh2-Y2blTkaWVyYF-9" value="hop (2)" style="edgeStyle=orthogonalEdgeStyle;shape=connector;curved=1;rounded=0;orthogonalLoop=1;jettySize=auto;html=1;exitX=0.75;exitY=0;exitDx=0;exitDy=0;entryX=0.25;entryY=0;entryDx=0;entryDy=0;strokeColor=default;align=center;verticalAlign=middle;fontFamily=Helvetica;fontSize=11;fontColor=default;labelBackgroundColor=default;endArrow=classic;" parent="1" source="HJgPrh2-Y2blTkaWVyYF-5" target="HJgPrh2-Y2blTkaWVyYF-7" edge="1">
                    <mxGeometry relative="1" as="geometry">
                        <Array as="points">
                            <mxPoint x="290" y="40"/>
                            <mxPoint x="390" y="40"/>
                        </Array>
                    </mxGeometry>
                </mxCell>
                <mxCell id="HJgPrh2-Y2blTkaWVyYF-5" value="Switch" style="rounded=1;whiteSpace=wrap;html=1;" parent="1" vertex="1">
                    <mxGeometry x="200" y="80" width="120" height="60" as="geometry"/>
                </mxCell>
                <mxCell id="HJgPrh2-Y2blTkaWVyYF-16" value="hop (3)" style="edgeStyle=orthogonalEdgeStyle;shape=connector;curved=1;rounded=0;orthogonalLoop=1;jettySize=auto;html=1;exitX=0.75;exitY=0;exitDx=0;exitDy=0;entryX=0.25;entryY=0;entryDx=0;entryDy=0;strokeColor=default;align=center;verticalAlign=middle;fontFamily=Helvetica;fontSize=11;fontColor=default;labelBackgroundColor=default;endArrow=classic;" parent="1" source="HJgPrh2-Y2blTkaWVyYF-7" target="HJgPrh2-Y2blTkaWVyYF-10" edge="1">
                    <mxGeometry relative="1" as="geometry">
                        <Array as="points">
                            <mxPoint x="450" y="40"/>
                            <mxPoint x="550" y="40"/>
                        </Array>
                    </mxGeometry>
                </mxCell>
                <mxCell id="HJgPrh2-Y2blTkaWVyYF-7" value="Switch" style="rounded=1;whiteSpace=wrap;html=1;" parent="1" vertex="1">
                    <mxGeometry x="360" y="80" width="120" height="60" as="geometry"/>
                </mxCell>
                <mxCell id="HJgPrh2-Y2blTkaWVyYF-17" value="hop (4)" style="edgeStyle=orthogonalEdgeStyle;shape=connector;curved=1;rounded=0;orthogonalLoop=1;jettySize=auto;html=1;exitX=0.75;exitY=0;exitDx=0;exitDy=0;entryX=0.25;entryY=0;entryDx=0;entryDy=0;strokeColor=default;align=center;verticalAlign=middle;fontFamily=Helvetica;fontSize=11;fontColor=default;labelBackgroundColor=default;endArrow=classic;" parent="1" source="HJgPrh2-Y2blTkaWVyYF-10" target="HJgPrh2-Y2blTkaWVyYF-11" edge="1">
                    <mxGeometry relative="1" as="geometry">
                        <Array as="points">
                            <mxPoint x="610" y="40"/>
                            <mxPoint x="710" y="40"/>
                        </Array>
                    </mxGeometry>
                </mxCell>
                <mxCell id="HJgPrh2-Y2blTkaWVyYF-10" value="Switch" style="rounded=1;whiteSpace=wrap;html=1;" parent="1" vertex="1">
                    <mxGeometry x="520" y="80" width="120" height="60" as="geometry"/>
                </mxCell>
                <mxCell id="HJgPrh2-Y2blTkaWVyYF-18" value="hop (5)" style="edgeStyle=orthogonalEdgeStyle;shape=connector;curved=1;rounded=0;orthogonalLoop=1;jettySize=auto;html=1;exitX=0.75;exitY=0;exitDx=0;exitDy=0;entryX=0.25;entryY=0;entryDx=0;entryDy=0;strokeColor=default;align=center;verticalAlign=middle;fontFamily=Helvetica;fontSize=11;fontColor=default;labelBackgroundColor=default;endArrow=classic;" parent="1" source="HJgPrh2-Y2blTkaWVyYF-11" target="HJgPrh2-Y2blTkaWVyYF-12" edge="1">
                    <mxGeometry relative="1" as="geometry">
                        <Array as="points">
                            <mxPoint x="770" y="40"/>
                            <mxPoint x="870" y="40"/>
                        </Array>
                    </mxGeometry>
                </mxCell>
                <mxCell id="HJgPrh2-Y2blTkaWVyYF-11" value="Switch" style="rounded=1;whiteSpace=wrap;html=1;" parent="1" vertex="1">
                    <mxGeometry x="680" y="80" width="120" height="60" as="geometry"/>
                </mxCell>
                <mxCell id="HJgPrh2-Y2blTkaWVyYF-19" value="hop (6)" style="edgeStyle=orthogonalEdgeStyle;shape=connector;curved=1;rounded=0;orthogonalLoop=1;jettySize=auto;html=1;exitX=0.75;exitY=0;exitDx=0;exitDy=0;entryX=0.25;entryY=0;entryDx=0;entryDy=0;strokeColor=default;align=center;verticalAlign=middle;fontFamily=Helvetica;fontSize=11;fontColor=default;labelBackgroundColor=default;endArrow=classic;" parent="1" source="HJgPrh2-Y2blTkaWVyYF-12" target="HJgPrh2-Y2blTkaWVyYF-13" edge="1">
                    <mxGeometry relative="1" as="geometry">
                        <Array as="points">
                            <mxPoint x="930" y="40"/>
                            <mxPoint x="1030" y="40"/>
                        </Array>
                    </mxGeometry>
                </mxCell>
                <mxCell id="HJgPrh2-Y2blTkaWVyYF-12" value="Switch" style="rounded=1;whiteSpace=wrap;html=1;" parent="1" vertex="1">
                    <mxGeometry x="840" y="80" width="120" height="60" as="geometry"/>
                </mxCell>
                <mxCell id="HJgPrh2-Y2blTkaWVyYF-27" value="hop (7)" style="edgeStyle=orthogonalEdgeStyle;shape=connector;curved=1;rounded=0;orthogonalLoop=1;jettySize=auto;html=1;exitX=0.75;exitY=0;exitDx=0;exitDy=0;entryX=0.25;entryY=0;entryDx=0;entryDy=0;strokeColor=default;align=center;verticalAlign=middle;fontFamily=Helvetica;fontSize=11;fontColor=default;labelBackgroundColor=default;endArrow=classic;" parent="1" source="HJgPrh2-Y2blTkaWVyYF-13" target="HJgPrh2-Y2blTkaWVyYF-21" edge="1">
                    <mxGeometry relative="1" as="geometry">
                        <Array as="points">
                            <mxPoint x="1090" y="40"/>
                            <mxPoint x="1190" y="40"/>
                        </Array>
                    </mxGeometry>
                </mxCell>
                <mxCell id="HJgPrh2-Y2blTkaWVyYF-13" value="Switch" style="rounded=1;whiteSpace=wrap;html=1;" parent="1" vertex="1">
                    <mxGeometry x="1000" y="80" width="120" height="60" as="geometry"/>
                </mxCell>
                <mxCell id="HJgPrh2-Y2blTkaWVyYF-28" value="hop (8)" style="edgeStyle=orthogonalEdgeStyle;shape=connector;curved=1;rounded=0;orthogonalLoop=1;jettySize=auto;html=1;exitX=1;exitY=0.5;exitDx=0;exitDy=0;entryX=0.25;entryY=0;entryDx=0;entryDy=0;strokeColor=default;align=center;verticalAlign=middle;fontFamily=Helvetica;fontSize=11;fontColor=default;labelBackgroundColor=default;endArrow=classic;" parent="1" source="HJgPrh2-Y2blTkaWVyYF-21" target="HJgPrh2-Y2blTkaWVyYF-22" edge="1">
                    <mxGeometry relative="1" as="geometry">
                        <Array as="points">
                            <mxPoint x="1300" y="110"/>
                            <mxPoint x="1300" y="160"/>
                            <mxPoint x="230" y="160"/>
                        </Array>
                    </mxGeometry>
                </mxCell>
                <mxCell id="HJgPrh2-Y2blTkaWVyYF-21" value="Switch" style="rounded=1;whiteSpace=wrap;html=1;" parent="1" vertex="1">
                    <mxGeometry x="1160" y="80" width="120" height="60" as="geometry"/>
                </mxCell>
                <mxCell id="HJgPrh2-Y2blTkaWVyYF-29" value="hop (9)" style="edgeStyle=orthogonalEdgeStyle;shape=connector;curved=1;rounded=0;orthogonalLoop=1;jettySize=auto;html=1;exitX=0.75;exitY=0;exitDx=0;exitDy=0;entryX=0.25;entryY=0;entryDx=0;entryDy=0;strokeColor=default;align=center;verticalAlign=middle;fontFamily=Helvetica;fontSize=11;fontColor=default;labelBackgroundColor=default;endArrow=classic;" parent="1" source="HJgPrh2-Y2blTkaWVyYF-22" target="HJgPrh2-Y2blTkaWVyYF-23" edge="1">
                    <mxGeometry relative="1" as="geometry">
                        <Array as="points">
                            <mxPoint x="290" y="190"/>
                            <mxPoint x="390" y="190"/>
                        </Array>
                    </mxGeometry>
                </mxCell>
                <mxCell id="HJgPrh2-Y2blTkaWVyYF-22" value="Switch" style="rounded=1;whiteSpace=wrap;html=1;" parent="1" vertex="1">
                    <mxGeometry x="200" y="230" width="120" height="60" as="geometry"/>
                </mxCell>
                <mxCell id="HJgPrh2-Y2blTkaWVyYF-30" value="hop (10)" style="edgeStyle=orthogonalEdgeStyle;shape=connector;curved=1;rounded=0;orthogonalLoop=1;jettySize=auto;html=1;exitX=0.75;exitY=0;exitDx=0;exitDy=0;entryX=0.25;entryY=0;entryDx=0;entryDy=0;strokeColor=default;align=center;verticalAlign=middle;fontFamily=Helvetica;fontSize=11;fontColor=default;labelBackgroundColor=default;endArrow=classic;" parent="1" source="HJgPrh2-Y2blTkaWVyYF-23" target="HJgPrh2-Y2blTkaWVyYF-24" edge="1">
                    <mxGeometry relative="1" as="geometry">
                        <Array as="points">
                            <mxPoint x="450" y="190"/>
                            <mxPoint x="550" y="190"/>
                        </Array>
                    </mxGeometry>
                </mxCell>
                <mxCell id="HJgPrh2-Y2blTkaWVyYF-23" value="Switch" style="rounded=1;whiteSpace=wrap;html=1;" parent="1" vertex="1">
                    <mxGeometry x="360" y="230" width="120" height="60" as="geometry"/>
                </mxCell>
                <mxCell id="HJgPrh2-Y2blTkaWVyYF-31" value="hop (11)" style="edgeStyle=orthogonalEdgeStyle;shape=connector;curved=1;rounded=0;orthogonalLoop=1;jettySize=auto;html=1;exitX=0.75;exitY=0;exitDx=0;exitDy=0;entryX=0.25;entryY=0;entryDx=0;entryDy=0;strokeColor=default;align=center;verticalAlign=middle;fontFamily=Helvetica;fontSize=11;fontColor=default;labelBackgroundColor=default;endArrow=classic;" parent="1" source="HJgPrh2-Y2blTkaWVyYF-24" target="HJgPrh2-Y2blTkaWVyYF-25" edge="1">
                    <mxGeometry relative="1" as="geometry">
                        <Array as="points">
                            <mxPoint x="610" y="190"/>
                            <mxPoint x="710" y="190"/>
                        </Array>
                    </mxGeometry>
                </mxCell>
                <mxCell id="HJgPrh2-Y2blTkaWVyYF-24" value="Switch" style="rounded=1;whiteSpace=wrap;html=1;" parent="1" vertex="1">
                    <mxGeometry x="520" y="230" width="120" height="60" as="geometry"/>
                </mxCell>
                <mxCell id="HJgPrh2-Y2blTkaWVyYF-32" value="hop (12)" style="edgeStyle=orthogonalEdgeStyle;shape=connector;curved=1;rounded=0;orthogonalLoop=1;jettySize=auto;html=1;exitX=0.75;exitY=0;exitDx=0;exitDy=0;entryX=0.25;entryY=0;entryDx=0;entryDy=0;strokeColor=default;align=center;verticalAlign=middle;fontFamily=Helvetica;fontSize=11;fontColor=default;labelBackgroundColor=default;endArrow=classic;" parent="1" source="HJgPrh2-Y2blTkaWVyYF-25" target="HJgPrh2-Y2blTkaWVyYF-26" edge="1">
                    <mxGeometry relative="1" as="geometry">
                        <Array as="points">
                            <mxPoint x="770" y="190"/>
                            <mxPoint x="870" y="190"/>
                        </Array>
                    </mxGeometry>
                </mxCell>
                <mxCell id="HJgPrh2-Y2blTkaWVyYF-25" value="Switch" style="rounded=1;whiteSpace=wrap;html=1;" parent="1" vertex="1">
                    <mxGeometry x="680" y="230" width="120" height="60" as="geometry"/>
                </mxCell>
                <mxCell id="HJgPrh2-Y2blTkaWVyYF-34" value="hop (13)" style="edgeStyle=orthogonalEdgeStyle;shape=connector;curved=1;rounded=0;orthogonalLoop=1;jettySize=auto;html=1;exitX=0.75;exitY=0;exitDx=0;exitDy=0;entryX=0.25;entryY=0;entryDx=0;entryDy=0;strokeColor=default;align=center;verticalAlign=middle;fontFamily=Helvetica;fontSize=11;fontColor=default;labelBackgroundColor=default;endArrow=classic;" parent="1" source="HJgPrh2-Y2blTkaWVyYF-26" target="HJgPrh2-Y2blTkaWVyYF-33" edge="1">
                    <mxGeometry relative="1" as="geometry">
                        <Array as="points">
                            <mxPoint x="930" y="190"/>
                            <mxPoint x="1030" y="190"/>
                        </Array>
                    </mxGeometry>
                </mxCell>
                <mxCell id="HJgPrh2-Y2blTkaWVyYF-26" value="Switch" style="rounded=1;whiteSpace=wrap;html=1;" parent="1" vertex="1">
                    <mxGeometry x="840" y="230" width="120" height="60" as="geometry"/>
                </mxCell>
                <mxCell id="HJgPrh2-Y2blTkaWVyYF-36" value="hop (14)" style="edgeStyle=orthogonalEdgeStyle;shape=connector;curved=1;rounded=0;orthogonalLoop=1;jettySize=auto;html=1;exitX=0.75;exitY=0;exitDx=0;exitDy=0;entryX=0.5;entryY=0;entryDx=0;entryDy=0;strokeColor=default;align=center;verticalAlign=middle;fontFamily=Helvetica;fontSize=11;fontColor=default;labelBackgroundColor=default;endArrow=classic;" parent="1" source="HJgPrh2-Y2blTkaWVyYF-33" target="HJgPrh2-Y2blTkaWVyYF-35" edge="1">
                    <mxGeometry relative="1" as="geometry">
                        <Array as="points">
                            <mxPoint x="1090" y="190"/>
                            <mxPoint x="1220" y="190"/>
                        </Array>
                    </mxGeometry>
                </mxCell>
                <mxCell id="HJgPrh2-Y2blTkaWVyYF-33" value="Switch" style="rounded=1;whiteSpace=wrap;html=1;" parent="1" vertex="1">
                    <mxGeometry x="1000" y="230" width="120" height="60" as="geometry"/>
                </mxCell>
                <mxCell id="HJgPrh2-Y2blTkaWVyYF-35" value="Milan Listener" style="rounded=1;whiteSpace=wrap;html=1;fillColor=#6a00ff;fontColor=#ffffff;strokeColor=#3700CC;" parent="1" vertex="1">
                    <mxGeometry x="1160" y="230" width="120" height="60" as="geometry"/>
                </mxCell>
                <mxCell id="2" value="Network speed: 1Gbps" style="text;html=1;strokeColor=none;fillColor=none;align=center;verticalAlign=middle;whiteSpace=wrap;rounded=0;" vertex="1" parent="1">
                    <mxGeometry x="40" width="160" height="30" as="geometry"/>
                </mxCell>
            </root>
        </mxGraphModel>
    </diagram>
</mxfile>